<?xml version="1.0" standalone="no"?><!DOCTYPE svg PUBLIC "-//W3C//DTD SVG 1.1//EN" "http://www.w3.org/Graphics/SVG/1.1/DTD/svg11.dtd"><svg t="1718072865860" class="icon" viewBox="0 0 1617 1024" version="1.1" xmlns="http://www.w3.org/2000/svg" p-id="8574" xmlns:xlink="http://www.w3.org/1999/xlink" width="404.25" height="256"><path d="M320.08812 0.129868h405.770988a79.322031 79.322031 0 0 1 78.837046 103.625181l-189.25202 816.9307a137.951358 137.951358 0 0 1-128.413315 103.194082H82.499238a79.322031 79.322031 0 0 1-78.783159-103.194082l189.683118-816.9307A137.951358 137.951358 0 0 1 319.980346 0.129868" fill="#ED171F" p-id="8575"></path><path d="M691.802366 0.075981h459.01159c56.042739 0 30.715732 46.450809 17.675018 103.625181l-186.126559 816.9307c-13.040714 56.797161-8.837509 103.194083-64.826361 103.194082H458.524464c-42.786476 2.15549-79.052595-31.577928-81.10031-75.2266a80.669212 80.669212 0 0 1 3.610445-27.967482l185.695462-816.9307A136.658064 136.658064 0 0 1 693.041773 0.075981" fill="#082F67" p-id="8576"></path><path d="M1128.342973 0.129868h406.094311a78.94482 78.94482 0 0 1 78.405948 103.625181l-188.928696 816.9307a138.059133 138.059133 0 0 1-128.52109 103.140195h-404.369919a78.94482 78.94482 0 0 1-78.837046-103.194082l188.928697-816.876813A138.059133 138.059133 0 0 1 1129.58238 0.129868" fill="#006A65" p-id="8577"></path><path d="M1087.227002 759.185663h36.266119l10.076916-41.115972h-35.888909l-10.454126 41.115972z m28.99134-113.217111l-12.501842 47.744103 21.016028-10.992999c7.598102 0 18.483327-3.341009 18.483326-3.34101l8.891396-33.89508-35.888908 0.484986z m18.968312-69.783988l-12.124631 47.79799c6.843681-3.664333 13.849023-6.843681 20.96214-9.538043 6.089259-1.616617 12.286293-2.74825 18.537214-3.34101l8.460298-33.948967-35.835021-0.96997z m80.561438 0l-47.959652 183.001099h12.501842l-9.699705 37.721074h-12.447955l-3.233235 11.477984h-44.349206l3.233235-11.477984H1023.963371l9.268607-35.350035h8.837509l47.151343-185.372138 9.699705-37.236089h45.103628l-4.849853 18.644988c7.382553-5.87371 15.357866-10.508014 23.764277-13.849023C1174.308797 540.40343 1239.512369 538.948475 1239.512369 538.948475l-9.699705 37.236089h-14.064572z" fill="#FFFFFF" p-id="8578"></path><path d="M1208.042215 540.834528h51.893421v20.800479c0 3.772107 2.586588 5.173176 8.62196 5.173175h10.400239l-9.484156 35.026713h-28.129144c-24.249262 0-33.30232-9.484156-32.871222-22.255434l-0.431098-38.744933z m6.897568 164.948871h-48.821848l8.190862-31.200718h56.635499l7.813651-27.859708H1182.930757l9.484156-35.026712H1347.286867l-9.538043 35.026712h-51.893421l-8.190862 27.859708h51.893421l-8.190861 30.715732H1265.917121l-9.915254 13.741249h22.902081l5.604274 38.744932a24.249262 24.249262 0 0 0 0 8.083088 27.590272 27.590272 0 0 0 12.124631 2.317151h6.951455l-10.400239 38.259947h-17.782792c-3.987656 0.377211-8.0292 0.377211-12.070744 0a28.560242 28.560242 0 0 1-12.555729-5.658161 18.267778 18.267778 0 0 1-9.484156-13.202376l-5.173176-38.79882-25.973654 38.259948a42.301491 42.301491 0 0 1-37.6133 21.285463h-36.320006l9.053058-34.002854h14.280121a19.507184 19.507184 0 0 0 9.969141-3.287123 17.621131 17.621131 0 0 0 7.759764-6.628131l37.6133-58.629327z m-540.489111-85.087967h129.706609l-9.538043 34.056741h-51.408436l-8.244749 29.314664h55.342205l-9.915254 34.972825h-54.964994l-12.93294 47.259118c0 5.173176 12.501842 5.658161 17.728905 5.658161l26.781963-3.772108-10.77745 38.79882H686.090318a49.091284 49.091284 0 0 1-14.280121 0 21.016027 21.016027 0 0 1-12.93294-23.171517l17.24392-62.401435H646.752626l9.969141-35.942795h29.799649l7.813651-28.829679h-29.853536l9.969141-35.942795z m86.489035-60.946479h53.617813l-9.538043 35.45781h-73.502208l-7.813651 7.544215c-3.448784 3.772107-4.742078 2.371039-9.053058 4.742078a44.07977 44.07977 0 0 1-24.249262 7.059229h-23.333179l9.538043-34.487839h6.897568a21.016027 21.016027 0 0 0 12.124631 0 27.213061 27.213061 0 0 0 7.759764-10.885225l13.417925-26.943624h54.048911l-9.915254 17.513356z m104.164053 58.629327c11.424097-10.346352 25.165345-17.028371 39.822678-19.39941h43.217574l5.658161-19.399409h-77.00488l-11.693533 38.798819z m70.969508 15.08843H861.223878l-4.742078 16.543385h74.795502l4.795966-16.543385zM839.130106 538.948475h45.426951l-6.46647 25.542556c7.544215-6.897568 15.788964-12.771278 24.626473-17.513356 10.77745-3.233235 21.770449-5.765936 32.871222-7.544215h73.502209l-25.111459 92.147196a106.696754 106.696754 0 0 1-12.070744 30.230747 31.092943 31.092943 0 0 1-12.555729 12.771278 45.211402 45.211402 0 0 1-17.297807 6.143147H848.290938l-20.36938 71.400605c0 7.544215-2.586588 10.831337 0 12.771278a8.783622 8.783622 0 0 0 7.382553 3.772108l31.14683-3.34101-10.831337 39.714903h-35.026712c-8.190862 0.538872-16.435611 0.538872-24.626473 0a28.02137 28.02137 0 0 1-15.142317-2.856024c-3.071573-3.233235-8.244749-7.544215-8.244749-11.801308 1.077745-6.574244 2.478813-13.040714 4.31098-19.39941L839.183993 538.948475z" fill="#FFFFFF" p-id="8579"></path><path d="M953.155526 701.687968l-3.772108 19.668846a28.129144 28.129144 0 0 1-7.921425 14.711219 32.547899 32.547899 0 0 1-23.872052 8.406411h-24.249262v22.201546c0 6.304808 0 5.927597 2.101603 6.735906l3.341009 2.101603h30.931281l-9.160832 32.33235h-27.213061a83.417462 83.417462 0 0 1-37.6133-4.257093 13.040714 13.040714 0 0 1-5.065402-12.555729l2.15549-86.00405h41.762619v17.190033h10.454126a13.364038 13.364038 0 0 0 7.113117 0 10.939112 10.939112 0 0 0 2.963799-4.634304l4.149318-13.849023 33.89508-2.101603zM341.265809 269.889439c0 7.113117-28.883566 134.664236-29.314663 134.664236a92.416633 92.416633 0 0 1-24.680361 55.82719 44.241432 44.241432 0 0 1-29.260776 10.023028 27.213061 27.213061 0 0 1-30.500183-25.973654v-5.927597l6.250921-34.380065s29.260776-116.18091 33.89508-131.700438c-22.309321 1.56273-44.67253 1.56273-66.927964 0v8.352524l-31.793477 128.413315-2.532701 10.885224-4.580416 36.481668a52.162857 52.162857 0 0 0 6.250921 27.320836c13.417925 23.494841 51.893421 26.83585 73.609983 26.83585 24.895909 0.754421 49.576269-5.065401 71.562267-16.812822 24.734247-16.327837 41.439295-42.355378 45.965823-71.723929l3.394897-12.986827s29.637987-120.8691 35.134487-136.334741a463.214795 463.214795 0 0 1-56.904936 0l0.431098-2.963798zM505.568033 512.00485h-50.654015l6.304808-26.83585 2.963799-12.178519c4.149318-18.860537 8.352524-41.92428 8.783622-47.420779 0.377211-5.388725 0-14.226234-9.645818-14.226234a47.959652 47.959652 0 0 0-15.08843 4.580416c-2.478813 10.508014-8.352524 38.637158-10.831337 51.623985-5.87371 27.266948-6.304808 30.17686-8.783621 41.978167h-51.462324c4.203205-16.381724 7.975313-32.763448 11.747421-48.714073 6.843681-27.590272 12.016857-55.611641 15.46564-83.902447 23.009855-3.341009 28.829678-3.772107 53.510039-9.21472v2.532701l-3.772108 13.849023 12.55573-7.167004c10.076916-4.742078 21.069914-7.328666 32.224575-7.544215a27.159174 27.159174 0 0 1 28.021369 15.519528c4.580416 11.316322 0 25.596443-4.580416 52.863391l-3.394897 13.849023c-6.250921 30.607958-7.544215 36.104457-10.831337 57.066597L505.568033 512.00485z m80.723099 0h-52.70173c1.616617-6.682019 3.772107-13.256263 6.304808-19.722733 2.317152-6.574244 4.31098-13.310151 5.819823-20.099944 3.341009-15.573415 5.442612-26.027541 7.113117-35.242261 1.670505-9.268607 2.532701-16.812822 3.34101-26.027542l27.213061-3.772107 28.021369-5.065402v2.15549c-2.532701 9.59193-4.634303 18.860537-6.682019 28.506355-2.15549 9.645818-4.634303 19.291635-6.735906 28.560242l-7.544215 33.086771-2.909911 18.483327-1.239407-0.862196z m125.503404-71.292831a105.942332 105.942332 0 0 1-11.747421 32.70956 18.375552 18.375552 0 0 1-15.088429 9.21472s-11.262435 0-11.262435-14.280121a84.171883 84.171883 0 0 1 2.963798-23.063743c5.011514-23.063743 11.316322-41.92428 27.159174-41.92428 15.896739 0 13.364038 14.657332 7.544215 37.721075l0.431098-0.377211z m51.839534 2.909911c6.682019-17.83668 4.849852-37.828849-5.011514-54.102798-12.555729-12.93294-30.230747-19.39941-48.121314-17.62113-21.016027-1.401068-41.762618 4.849852-58.521553 17.62113a102.06245 102.06245 0 0 0-26.781963 52.001196c-4.203205 18.483327-9.160832 52.863392 21.770449 65.473008 10.508014 3.341009 21.5549 5.011514 32.601786 5.011514 23.71039 1.185519 46.881907-7.813651 63.586954-24.788135 10.77745-13.687361 18.267778-29.799649 21.716561-46.935794l-1.239406 3.341009z m519.904181-73.394433c-24.68036 4.580416-31.362379 5.388725-55.23443 8.783621a24.788135 24.788135 0 0 1 0 5.442613 32.655673 32.655673 0 0 0-17.567243-14.226234 66.01188 66.01188 0 0 0-56.851048 23.494841c-14.226234 14.010685-23.602615 32.278462-26.781963 52.001195-4.580416 18.483327-9.645818 52.432294 21.33935 64.664699 8.675847 3.664333 18.106116 5.388725 27.590272 5.011515a46.774132 46.774132 0 0 0 26.350865-12.178519 61.431464 61.431464 0 0 1-2.101603 8.352524h55.234431c3.772107-20.531042 6.682019-41.92428 16.273949-80.507551 4.203205-18.860537 8.783622-37.774962 13.417925-56.689386l-1.670505-4.149318z m-77.813188 103.194082a28.829678 28.829678 0 0 1-19.668846 9.21472s-11.316322 0-11.693533-14.280121c0.484985-7.759764 1.616617-15.465641 3.34101-23.063743 5.388725-22.632645 11.693533-41.92428 27.213061-41.92428 15.465641 0 15.465641 9.21472 14.172346 25.165346 0 3.772107 0 7.975313-2.909911 12.555729l-5.011514 20.584929a42.032054 42.032054 0 0 1-5.873711 11.74742h0.431098z m-302.846341 36.104457h-50.600127l6.304808-26.889737 2.909912-12.178518c4.203205-18.860537 8.352524-41.92428 9.214719-47.42078 0.862196-5.388725 0-14.226234-10.023028-14.226234a45.911936 45.911936 0 0 0-14.657332 4.634304c-2.909911 10.454126-8.783622 38.583271-11.316322 51.570097-5.819823 27.266948-6.250921 30.17686-8.783622 41.978168h-51.408436l11.316322-48.660187a690.834537 690.834537 0 0 0 15.034543-83.956334h2.101603c22.955968-3.341009 28.39858-3.772107 53.510038-9.160832l2.101603 2.478813-3.772107 13.849023 12.555729-7.167004c10.076916-4.795965 21.016027-7.382553 32.224575-7.544215a27.590272 27.590272 0 0 1 28.02137 15.519528c4.580416 11.316322 0 25.596443-5.065402 52.863392l-2.909911 13.849023c-7.113117 30.661845-7.544215 36.104457-11.316323 57.120484l-5.388725 3.341009z m172.762521-239.58271h-84.495207v8.783621l-17.567243 73.017223-38.475496 159.829582h59.383749c0-6.682019 10.076916-49.899593 10.454126-49.899593 0.431098 0 7.113117-31.039056 7.544215-32.33235a26.404752 26.404752 0 0 1 5.011514-4.580416h3.34101a161.446199 161.446199 0 0 0 97.913132-21.016027 104.541264 104.541264 0 0 0 38.852707-62.078111 94.302686 94.302686 0 0 0 2.5327-21.824336 47.097456 47.097456 0 0 0-6.25092-29.368551c-14.657332-20.099944-41.870393-20.531042-77.813189-20.96214l-0.431098 0.431098z m22.201547 74.256629a51.570098 51.570098 0 0 1-27.213061 35.673359 83.417462 83.417462 0 0 1-38.044398 6.250921h-8.783621v-3.772107s16.705047-71.723929 16.705047-71.292831v-6.735906h7.113117l34.703388 2.963799c13.956798 5.927597 20.477155 22.093772 14.657332 36.104457l0.862196 0.808308z m-487.679606 42.355378c12.93294-9.21472 14.603445-21.824336 3.772107-28.560242a46.343034 46.343034 0 0 0-45.6425 4.634304c-13.364038 9.268607-14.603445 21.824336-3.772108 28.560242 14.926768 6.897568 32.33235 5.119289 45.588613-4.634304z m840.641089-16.327836h-2.047715c-24.249262 4.580416-28.883566 5.87371-51.462323 8.783621-16.705047 39.014369-16.327837 30.607958-29.691875 61.269803v-4.634303l-4.634303-65.419121a487.140734 487.140734 0 0 1-50.169029 8.783621v2.963799c2.101603 12.124631 3.772107 23.872051 5.011514 36.104457 1.239407 12.124631 3.341009 23.872051 4.634303 35.188374 2.047715 19.722733 3.772107 29.368551 6.682019 59.1682-15.896739 26.404752-20.099944 36.481668-35.134486 59.976508l-10.885225 17.621131a11.316322 11.316322 0 0 1-4.203205 3.394897 13.364038 13.364038 0 0 1-7.113117 0h-5.819823l-9.214719 30.176859h30.931281a37.6133 37.6133 0 0 0 35.565584-19.722733l19.668846-33.571756v-2.047716c12.93294-28.129144 112.085479-198.897837 112.085479-198.897837l-4.203206 0.862196z" fill="#FFFFFF" p-id="8580"></path></svg>