<svg t="1718073789639" class="icon" viewBox="0 0 1024 1024" version="1.1" xmlns="http://www.w3.org/2000/svg" p-id="14419" width="256" height="256"><path d="M427.4 134.3L794.1 482c26.3 24.9 27.4 66.8 2.5 93.1L569.9 814.2c-24.9 26.3-66.8 27.4-93.1 2.5L110.1 469c-26.3-24.9-27.4-66.8-2.5-93.1l226.7-239.1c24.9-26.3 66.8-27.4 93.1-2.5z" fill="#FEC50D" p-id="14420"></path><path d="M298.6 169.8l471.9 180.7c33.8 13 50.9 51.2 38 85L690.7 743.3c-13 33.8-51.2 50.9-85 38l-472-180.8c-33.8-13-50.9-51.2-38-85l117.8-307.7c13-33.9 51.3-50.9 85.1-38z" fill="#44C0D9" p-id="14421"></path><path d="M141.6 280.4h687.3c49.3 0 89.6 40.3 89.6 89.6v448.1c0 49.3-40.3 89.6-89.6 89.6H141.6c-49.3 0-89.6-40.3-89.6-89.6V370c0-49.3 40.3-89.6 89.6-89.6z" fill="#005B7D" p-id="14422"></path><path d="M792.6 851.4H740v-13.1h52.6v13.1z m-105.2 0h-52.6v-13.1h52.6v13.1z m-105.1 0h-52.6v-13.1h52.6v13.1z m-105.1 0h-52.6v-13.1h52.6v13.1z m-105.2 0h-52.6v-13.1H372v13.1z m-105.1 0h-52.6v-13.1h52.6v13.1z m-105.2 0h-20.2c-18.3 0-33.2-14.9-33.2-33.3v-10.7h13.1v10.7c0 11.1 9 20.1 20.1 20.1h20.2v13.2z m686.2-6.1l-7.6-10.8c5.4-3.8 8.6-9.9 8.6-16.5v-27H862v27c0.1 10.9-5.2 21.1-14.1 27.3z m-726.4-90.4h-13.1v-52.6h13.1v52.6z m740.6-16.3H849V686h13.1v52.6z m-740.6-88.9h-13.1v-52.6h13.1v52.6z m740.6-16.3H849v-52.6h13.1v52.6z m-740.6-88.8h-13.1V492h13.1v52.6z m740.6-16.3H849v-52.6h13.1v52.6z m-740.6-88.9h-13.1v-52.6h13.1v52.6z m740.6-16.2H849v-52.6h13.1v52.6z m-725.2-72.8l-3-12.8c2.5-0.6 5.1-0.9 7.6-0.9h46.4v13.1h-46.4c-1.5 0.1-3.1 0.3-4.6 0.6z m681.9-0.5h-52.6v-13.1h52.6v13.1z m-105.2 0H661v-13.1h52.6v13.1z m-105.1 0h-52.6v-13.1h52.6v13.1z m-105.1 0h-52.6v-13.1h52.6v13.1z m-105.2 0h-52.6v-13.1h52.6v13.1z m-105.1 0h-52.6v-13.1h52.6v13.1z" fill="#44C0D9" p-id="14423"></path><path d="M754.6 490h163c29.9 0 54.4 24.5 54.4 54.4v99.2c0 29.9-24.5 54.4-54.4 54.4h-163c-57.2 0-104-46.8-104-104s46.8-104 104-104z" fill="#FEC50D" p-id="14424"></path><path d="M866.9 594m-37.1 0a37.1 37.1 0 1 0 74.2 0 37.1 37.1 0 1 0-74.2 0Z" fill="#FFFFFF" p-id="14425"></path></svg>
