<?xml version="1.0" standalone="no"?><!DOCTYPE svg PUBLIC "-//W3C//DTD SVG 1.1//EN" "http://www.w3.org/Graphics/SVG/1.1/DTD/svg11.dtd"><svg t="1718072839738" class="icon" viewBox="0 0 1024 1024" version="1.1" xmlns="http://www.w3.org/2000/svg" p-id="7146" xmlns:xlink="http://www.w3.org/1999/xlink" width="256" height="256"><path d="M911.655822 21.344711a91.022222 91.022222 0 0 1 91.022222 91.022222v799.266134a91.022222 91.022222 0 0 1-91.022222 91.022222H112.344178a91.022222 91.022222 0 0 1-91.022222-91.022222V112.366933a91.022222 91.022222 0 0 1 91.022222-91.022222h799.311644zM561.925689 210.807467a303.900444 303.900444 0 0 0-66.446222-3.049245c-31.425422 1.661156-62.850844 6.599111-94.253511 16.543289-54.567822 18.181689-104.152178 46.2848-145.499023 90.9312a276.024889 276.024889 0 0 0-64.466489 110.774045 255.772444 255.772444 0 0 0-9.921422 51.245511v19.842844l0.068267 2.434845c0.2048 1.683911 0.864711 2.525867 3.231289 2.525866 0 9.921422 0 18.204444 1.661155 26.464711 3.299556 19.820089 8.260267 39.662933 14.882134 57.867378 16.520533 41.324089 42.985244 77.687467 76.049066 107.451733l5.9392 5.597867c7.964444 7.054222 15.883378 12.583822 23.825067 19.205689 3.299556 1.661156 3.299556 3.299556 3.299556 6.599111l-5.848178 29.195378a722.488889 722.488889 0 0 0-7.3728 43.576889c-1.661156 3.299556-1.661156 8.260267-1.661156 11.559822 0 4.960711 3.299556 6.599111 6.599111 6.599111 3.322311 0 8.283022-1.6384 11.605334-3.299555 18.158933-9.898667 34.702222-19.820089 52.883911-31.402667l7.850666-4.960711c5.006222-3.299556 9.784889-6.599111 15.291734-9.921422h4.960711c18.204444 6.599111 38.024533 11.582578 57.867378 14.882133 11.582578 1.661156 24.803556 1.661156 38.024533 3.299555h29.764267c16.543289 0 34.724978-1.6384 52.906666-4.960711 26.464711-4.960711 52.906667-13.198222 79.371378-23.1424a329.090844 329.090844 0 0 0 119.034311-82.670933c28.103111-31.402667 47.945956-66.127644 59.528534-105.813333 4.960711-18.181689 8.260267-36.363378 9.921422-54.545067 3.299556-43.008-4.960711-84.332089-23.165156-124.017778a48.082489 48.082489 0 0 0-4.391822-10.831644l-3.868444-7.350045a1.820444 1.820444 0 0 0-0.250312-0.978489l-1.137777-1.342577-0.273067-0.978489c-1.6384 1.2288-3.413333 2.366578-5.211022 3.458844l-11.0592 6.303289-5.233778 3.458845c-100.829867 59.528533-200.021333 119.034311-300.896711 178.562844-18.181689 11.582578-36.363378 23.1424-56.206222 33.063822a33.336889 33.336889 0 0 1-18.181689 4.960711c-9.921422 1.661156-18.204444-3.299556-23.1424-14.882133-16.543289-39.685689-33.063822-77.710222-49.607111-117.373156-3.299556-8.283022-4.960711-16.543289-6.599111-24.803555v-1.661156c0-9.921422 4.937956-13.220978 13.198222-8.260266l16.452266 10.831644c3.413333 2.321067 6.712889 4.7104 10.012445 7.350045 13.220978 8.260267 24.803556 16.543289 38.024533 24.803555 16.543289 9.921422 34.724978 11.559822 52.906667 3.299556 92.615111-41.324089 185.184711-84.309333 277.777067-127.294578 13.198222-4.960711 26.441956-11.582578 39.662933-18.204445a1.820444 1.820444 0 0 0 0.978489-0.227555l1.365333-1.137778 0.978489-0.273067c-4.960711-4.960711-8.283022-9.921422-13.243733-14.882133-38.001778-39.685689-82.648178-67.7888-133.916445-85.970489l-9.102222-3.345066a295.844978 295.844978 0 0 0-53.703111-13.198223z" fill="#15BA12" p-id="7147"></path></svg>