<svg t="1627279968335" class="icon" viewBox="0 0 1024 1024" version="1.1" xmlns="http://www.w3.org/2000/svg" p-id="11104" width="40" height="40"><path d="M513.39159 457.491692H56.97641c-24.576 0-44.530872 19.928615-44.530872 44.530872v456.441436c0 24.576 19.954872 44.530872 44.530872 44.530872h456.441436c24.576 0 44.530872-19.954872 44.530872-44.530872V502.022564c0-24.602256-19.954872-44.530872-44.530872-44.530872z m-52.250257 419.971282c0 15.885128-12.865641 28.750769-28.724512 28.75077H137.924923c-15.885128 0-28.724513-12.865641-28.724513-28.75077V582.997333c0-15.885128 12.865641-28.750769 28.724513-28.750769h294.491898c15.858872 0 28.724513 12.865641 28.724512 28.750769v294.465641z m229.638564-375.44041v282.151385c0 24.628513 21.609026 44.530872 48.311795 44.530872h1.575385c26.650256 0 48.311795-19.902359 48.311795-44.530872V502.022564c0-24.602256-21.661538-44.530872-48.311795-44.530872h-1.575385c-26.702769 0-48.311795 19.928615-48.311795 44.530872z m283.516718-44.530872h-1.575384c-26.676513 0-48.311795 19.928615-48.311795 44.530872v70.550974c0 24.602256 21.635282 44.530872 48.311795 44.530872h1.575384c26.702769 0 48.311795-19.954872 48.311795-44.530872V502.022564c0-24.602256-21.609026-44.530872-48.311795-44.530872z m0 213.674667h-1.575384c-26.676513 0-48.311795 19.902359-48.311795 44.530872v189.098666h-189.098667c-24.628513 0-44.530872 21.609026-44.530872 48.311795v1.575385c0 26.702769 19.902359 48.311795 44.530872 48.311795h242.766769c11.395282 0 21.635282-4.726154 29.512206-12.393026 0.472615-0.393846 0.945231-0.787692 1.391589-1.234051a23.998359 23.998359 0 0 0 1.234052-1.39159c7.614359-7.876923 12.393026-18.116923 12.393025-29.512205v-242.766769c0-24.628513-21.609026-44.530872-48.311795-44.530872zM26.25641 347.083487h68.870564c7.614359 0 13.837128-6.196513 13.837129-13.863384V28.488205a13.837128 13.837128 0 0 0-13.837129-13.837128H26.25641a13.863385 13.863385 0 0 0-13.837128 13.837128v304.731898c0 7.666872 6.222769 13.863385 13.837128 13.863384z m166.570667 0H219.766154a13.837128 13.837128 0 0 0 13.837128-13.863384V28.488205A13.837128 13.837128 0 0 0 219.766154 14.651077H192.827077a13.837128 13.837128 0 0 0-13.863385 13.837128v304.731898c0 7.666872 6.170256 13.863385 13.863385 13.863384z m333.718974 0.787692c-0.341333 0-0.630154-0.131282-0.94523-0.183794-0.288821 0.052513-0.65641 0.183795-0.997744 0.183794h1.969231zM524.603077 15.333744c0.341333 0 0.708923 0.157538 0.997744 0.210051 0.315077-0.052513 0.603897-0.210051 0.971487-0.210051h-1.969231z m0.236308 331.644718a13.810872 13.810872 0 0 0 13.443282-13.758359V28.488205a13.810872 13.810872 0 0 0-13.443282-13.758359 13.784615 13.784615 0 0 0-13.443282 13.758359v304.731898c0 7.509333 5.986462 13.522051 13.443282 13.758359zM1009.112615 14.651077H940.242051a13.837128 13.837128 0 0 0-13.837128 13.837128v304.731898c0 7.666872 6.196513 13.863385 13.837128 13.863384h68.870564c7.614359 0 13.837128-6.196513 13.837129-13.863384V28.488205a13.837128 13.837128 0 0 0-13.837129-13.837128z m-193.509743 332.406154h27.464205a13.837128 13.837128 0 0 0 13.863385-13.837128V28.488205a13.837128 13.837128 0 0 0-13.863385-13.837128h-27.437949a13.863385 13.863385 0 0 0-13.863384 13.837128v304.731898c0 7.666872 6.222769 13.863385 13.863384 13.863384z m-470.829949 0h82.970256a13.837128 13.837128 0 0 0 13.863385-13.837128V28.488205a13.837128 13.837128 0 0 0-13.837128-13.837128H344.746667a13.837128 13.837128 0 0 0-13.837129 13.837128v304.731898c0 7.666872 6.196513 13.863385 13.837129 13.863384z m387.649641-13.837128V28.488205a13.863385 13.863385 0 0 0-13.863385-13.837128h-82.970256a13.837128 13.837128 0 0 0-13.810872 13.837128v304.731898c0 7.666872 6.170256 13.863385 13.810872 13.863384h82.970256a13.863385 13.863385 0 0 0 13.863385-13.863384z" fill="#47585C" p-id="11105"></path><path d="M359.187692 641.732923H211.101538a14.441026 14.441026 0 0 0-14.441025 14.441026v148.086154c0 7.981949 6.485333 14.441026 14.441025 14.441025h148.086154a14.441026 14.441026 0 0 0 14.441026-14.441025v-148.086154a14.441026 14.441026 0 0 0-14.441026-14.441026z" fill="#C19555" p-id="11106"></path></svg>