<svg t="1627280011498" class="icon" viewBox="0 0 1024 1024" version="1.1" xmlns="http://www.w3.org/2000/svg" p-id="12741" width="40" height="40"><path d="M404.992 628.224c-53.76 32.768-61.952-18.432-61.952-18.432L275.968 439.808c-26.112-80.896 22.528-36.352 22.528-36.352s41.472 34.304 73.216 54.784c31.744 20.992 67.584 6.144 67.584 6.144L880.64 243.712c-81.92-110.08-216.576-181.76-368.64-181.76-248.32 0-450.048 190.976-450.048 426.496 0 135.68 66.56 256 170.496 334.336l-18.944 116.736s-9.216 34.304 22.528 18.432c21.504-10.752 76.8-49.152 109.056-72.704 53.248 19.968 109.568 30.208 166.4 30.208 248.32 0 450.048-190.976 450.048-426.496 0-68.096-16.896-132.608-47.104-189.952-140.288 91.136-466.944 304.128-509.44 329.216z" fill="#41B035" p-id="12742"></path></svg>