<svg t="1627279924625" class="icon" viewBox="0 0 1024 1024" version="1.1" xmlns="http://www.w3.org/2000/svg" p-id="9574" width="40" height="40"><path d="M896.011378 917.691733h-223.965867v-53.054577h187.511467a25.070933 25.070933 0 0 0 25.070933-25.070934v-116.4288h53.1456v152.758045a41.7792 41.7792 0 0 1-41.7792 41.796266z m-170.797511-176.856177V281.008356h53.1456v455.964444z m159.4368-558.569245a25.070933 25.070933 0 0 0-25.070934-25.070933h-187.534222v-53.048889h223.943111a41.7792 41.7792 0 0 1 41.7792 41.7792v135.082667H884.622222V182.272z m-301.1584 98.742045h78.045866v459.832888h-78.045866z m-197.626311 0h55.904711v459.832888l-55.904711-3.868444v-455.964444zM34.321067 875.912533v-152.775111h53.1456v116.417422a25.070933 25.070933 0 0 0 25.070933 25.070934h205.226667v53.054578h-241.664a41.7792 41.7792 0 0 1-41.7792-41.767823z m141.7216-135.076977V281.008356h17.7152v459.832888z m-88.576-558.569245v98.742045H34.321067V145.925689a41.7792 41.7792 0 0 1 41.7792-41.7792h241.664v53.048889H112.5376a25.070933 25.070933 0 0 0-25.070933 25.076622z" p-id="9575"></path><path d="M229.302044 279.7568h70.360178v462.324622H229.302044z" fill="#70E07B" p-id="9576"></path><path d="M495.047111 279.7568h35.180089v462.324622H495.047111z" fill="#EFFF3F" p-id="9577"></path><path d="M763.397689 566.801067a208.384 208.384 0 1 0 208.384 208.384 208.384 208.384 0 0 0-208.384-208.384z m110.427022 157.2864L750.267733 847.644444a15.104 15.104 0 0 1-21.361777 0l-75.935289-75.935288a15.104 15.104 0 0 1 21.361777-21.361778l65.251556 65.251555 112.878933-112.873244a15.104 15.104 0 0 1 21.361778 21.361778z" fill="#3AA5EA" p-id="9578"></path></svg>