<svg t="1646052857163" class="icon" viewBox="0 0 1025 1024" version="1.1" xmlns="http://www.w3.org/2000/svg" p-id="3441" width="40" height="40"><path d="M486.783502 63.372299l37.690175 0 0 112.36441 53.268713 67.60592 73.387878 93.168312L504.379073 336.510942 357.576711 336.510942l73.388901-93.168312 55.821984-70.861213L486.787596 63.372299 486.783502 63.372299zM268.829294 886.785453l77.081167 0 0-504.708594 319.458773 0 0 504.708594 61.07896 0L726.448194 480.060058l139.242837 0 0 406.723348 93.004575 0 0 72.125057c-342.010453 0-546.954747 0-893.751433 0L64.944173 345.165458l203.88512 120.241176L268.829294 886.785453 268.829294 886.785453zM516.720738 740.490675l0 56.816685 44.13015 0 0-56.816685L516.720738 740.490675 516.720738 740.490675zM120.156238 654.417285l-26.706503 0 0 0 0 34.338687M221.975995 714.611043l0 34.312079 26.73004 0 0-34.312079L221.975995 714.611043 221.975995 714.611043zM221.975995 532.499853l0 34.288542 26.73004 0 0-34.288542L221.975995 532.499853 221.975995 532.499853zM179.131179 532.499853l0 34.288542 26.71162 0 0-34.288542L179.131179 532.499853 179.131179 532.499853zM135.294732 714.611043l0 34.312079 26.682966 0 0-34.312079L135.294732 714.611043 135.294732 714.611043zM135.294732 592.646537l0 34.360177 26.682966 0 0-34.360177L135.294732 592.646537 135.294732 592.646537zM93.449735 532.499853l0 34.288542 26.706503 0 0-34.288542L93.449735 532.499853 93.449735 532.499853zM751.041468 664.550549l0 42.647308 33.171038 0 0-42.647308L751.041468 664.550549 751.041468 664.550549zM751.041468 739.326097l0 42.601257 33.171038 0 0-42.601257L751.041468 739.326097 751.041468 739.326097zM751.041468 513.109317l0 42.646285 33.171038 0L784.212506 513.109317 751.041468 513.109317 751.041468 513.109317zM802.994146 587.835743l0 42.647308 33.150571 0 0-42.647308L802.994146 587.835743 802.994146 587.835743zM802.994146 513.109317l0 42.646285 33.150571 0L836.144717 513.109317 802.994146 513.109317 802.994146 513.109317zM382.289717 740.490675l0 56.816685 44.153687 0 0-56.816685L382.289717 740.490675 382.289717 740.490675zM382.289717 538.844656l0 56.766541 44.153687 0 0-56.766541L382.289717 538.844656 382.289717 538.844656zM583.234738 538.844656l0 56.766541 44.153687 0 0-56.766541L583.234738 538.844656 583.234738 538.844656zM516.720738 538.844656l0 56.766541 44.13015 0 0-56.766541L516.720738 538.844656 516.720738 538.844656zM450.476904 538.844656l0 56.766541 44.155734 0 0-56.766541L450.476904 538.844656 450.476904 538.844656zM382.289717 439.331541l0 56.790078 44.153687 0 0-56.790078L382.289717 439.331541 382.289717 439.331541zM583.234738 439.331541l0 56.790078 44.153687 0 0-56.790078L583.234738 439.331541 583.234738 439.331541zM516.720738 439.331541l0 56.790078 44.13015 0 0-56.790078L516.720738 439.331541 516.720738 439.331541zM382.289717 641.052265l0 56.744027 44.153687 0 0-56.744027L382.289717 641.052265 382.289717 641.052265zM583.234738 641.052265l0 56.744027 44.153687 0 0-56.744027L583.234738 641.052265z" p-id="3442" fill="#1977FD"></path></svg>