<?xml version="1.0" standalone="no"?><!DOCTYPE svg PUBLIC "-//W3C//DTD SVG 1.1//EN" "http://www.w3.org/Graphics/SVG/1.1/DTD/svg11.dtd"><svg t="1707661199518" class="icon" viewBox="0 0 1024 1024" version="1.1" xmlns="http://www.w3.org/2000/svg" p-id="4077" xmlns:xlink="http://www.w3.org/1999/xlink" width="200" height="200"><path d="M853.341061 0a85.33331 85.33331 0 0 1 85.333309 85.33331v703.772249l46.079988-18.97244a28.444437 28.444437 0 0 1 21.646216 52.622208l-483.555421 199.111056a28.444437 28.444437 0 0 1-21.646217 0l-483.555421-199.111056a28.444437 28.444437 0 0 1 21.646216-52.622208l46.079988 18.97244V85.33331a85.33331 85.33331 0 0 1 85.333309-85.33331z m0 56.888873H170.674584a28.444437 28.444437 0 0 0-28.444437 28.444437v727.210464l369.777675 152.263069 369.777675-152.263069V85.33331a28.444437 28.444437 0 0 0-28.444436-28.444437z" fill="#464750" p-id="4078"></path><path d="M445.959841 516.351857h-72.95998a10.268442 10.268442 0 0 0-10.239997 10.239997v34.702212c0 5.603554 4.607999 10.239997 10.239997 10.239997h97.279973v49.919987h-97.279973a10.268442 10.268442 0 0 0-10.239997 10.239997v34.673768c0 5.631998 4.607999 10.239997 10.239997 10.239997h97.279973v81.151978c0 5.631998 4.607999 10.239997 10.239997 10.239997h63.85776c5.631998 0 10.239997-4.607999 10.239997-10.239997v-81.2942h97.678195c5.631998 0 10.239997-4.607999 10.239997-10.239997v-34.673768a10.268442 10.268442 0 0 0-10.239997-10.239998h-97.678195v-49.919986h97.678195c5.631998 0 10.239997-4.607999 10.239997-10.239997v-34.702212a10.268442 10.268442 0 0 0-10.239997-10.239998H578.567804l132.721741-245.219487a11.007997 11.007997 0 0 0 1.279999-4.863999 10.439108 10.439108 0 0 0-10.353775-10.126219h-69.774202a10.097775 10.097775 0 0 0-9.10222 5.631998l-108.373303 216.06394h-4.266666l-108.373303-216.06394a10.239997 10.239997 0 0 0-9.10222-5.631998h-71.310202a9.557331 9.557331 0 0 0-4.835554 1.28 10.183108 10.183108 0 0 0-4.124444 13.823996l133.006186 245.247932z" fill="#1890FF" p-id="4079"></path></svg>